<?xml version="1.0" standalone="no"?>
<!DOCTYPE svg PUBLIC "-//W3C//DTD SVG 20010904//EN"
 "http://www.w3.org/TR/2001/REC-SVG-20010904/DTD/svg10.dtd">
<svg version="1.0" xmlns="http://www.w3.org/2000/svg"
 width="700.000000pt" height="700.000000pt" viewBox="0 0 700.000000 700.000000"
 preserveAspectRatio="xMidYMid meet">
<metadata>
Created by potrace 1.14, written by Peter Selinger 2001-2017
</metadata>
<g transform="translate(0.000000,700.000000) scale(0.100000,-0.100000)"
fill="#000000" stroke="none">
<path d="M2515 6331 c-284 -108 -513 -233 -743 -406 -104 -78 -131 -100 -236
-195 -353 -321 -633 -752 -794 -1220 -38 -110 -92 -315 -108 -410 -4 -25 -8
-47 -9 -50 -1 -3 -5 -32 -9 -65 -5 -33 -10 -69 -12 -80 -23 -121 -23 -580 0
-705 3 -14 7 -46 10 -71 3 -25 13 -81 21 -125 9 -43 19 -92 21 -109 7 -41 57
-212 92 -315 200 -586 636 -1150 1152 -1488 63 -41 59 -39 179 -110 207 -122
594 -276 773 -307 15 -3 56 -12 90 -19 35 -8 81 -17 103 -20 22 -4 54 -9 70
-11 17 -3 43 -7 59 -10 161 -25 545 -25 726 0 19 3 51 7 70 10 544 67 1140
350 1570 745 l55 50 -114 -70 c-329 -201 -714 -340 -1086 -390 -44 -6 -93 -14
-110 -17 -16 -3 -138 -6 -270 -8 -217 -3 -381 7 -485 30 -14 3 -45 8 -70 11
-89 12 -348 83 -474 130 -274 101 -580 274 -812 459 -128 102 -339 313 -441
440 -235 293 -403 611 -512 965 -38 124 -86 332 -96 423 -3 25 -8 54 -10 66
-23 123 -24 588 0 711 2 10 6 40 10 67 10 70 13 89 51 271 26 129 136 427 217
587 86 172 242 417 329 517 13 14 49 57 80 95 52 63 210 221 299 299 114 101
341 258 473 327 88 47 67 46 -59 -2z"/>
<path d="M3637 6144 c-1 -1 -42 -4 -92 -8 -91 -7 -104 -8 -185 -20 -57 -9
-253 -56 -260 -63 -3 -3 27 -2 65 2 124 12 359 7 449 -11 11 -2 38 -6 61 -9
210 -30 517 -151 720 -284 127 -82 189 -134 315 -261 200 -199 337 -413 433
-670 32 -86 72 -218 83 -273 29 -148 39 -256 38 -422 -5 -648 -338 -1247 -889
-1597 -58 -37 -233 -126 -310 -159 -126 -53 -388 -114 -538 -125 -48 -4 -86
-8 -85 -10 16 -15 308 -22 433 -10 157 16 487 96 519 127 6 5 17 9 25 9 26 1
241 112 337 175 229 149 424 342 570 564 181 277 291 589 319 901 40 450 -74
899 -323 1270 -131 197 -256 327 -482 503 -134 105 -444 252 -624 298 -75 19
-171 40 -206 45 -19 3 -42 7 -50 9 -33 8 -315 25 -323 19z"/>
<path d="M3039 5636 c-2 -2 -29 -7 -59 -10 -203 -24 -467 -125 -655 -251 -104
-70 -123 -85 -220 -180 -162 -158 -287 -344 -376 -560 -20 -50 -65 -206 -75
-262 -10 -58 -14 -79 -19 -117 -9 -61 -12 -287 -4 -316 6 -21 7 -18 9 18 1 23
3 45 4 50 1 4 5 30 10 57 20 132 83 314 155 450 78 149 144 241 261 364 50 53
167 149 240 199 172 115 402 207 600 238 19 3 46 8 60 10 14 3 90 7 170 9 254
5 479 -44 702 -155 405 -202 689 -547 807 -979 53 -194 68 -476 35 -646 -12
-58 5 -19 31 75 48 170 59 253 59 445 -1 127 -7 194 -30 317 -17 96 -78 266
-134 379 -100 198 -217 345 -413 517 -111 97 -330 217 -495 271 -172 57 -279
74 -478 77 -100 2 -183 2 -185 0z"/>
<path d="M5642 5445 c18 -27 35 -52 38 -55 20 -18 103 -167 161 -285 77 -160
146 -354 173 -487 3 -12 10 -48 16 -78 6 -30 13 -71 16 -90 2 -19 6 -46 9 -60
30 -165 21 -514 -19 -716 -2 -12 -7 -37 -10 -55 -3 -19 -10 -49 -15 -67 -5
-18 -10 -33 -9 -35 1 -6 -27 -101 -52 -177 -271 -814 -1015 -1438 -1855 -1555
-22 -3 -51 -8 -65 -11 -107 -20 -435 -20 -570 1 -196 29 -319 57 -465 107
-233 78 -547 250 -701 385 -12 10 -43 36 -70 58 -157 129 -319 321 -481 571
-21 32 41 -116 91 -216 25 -52 52 -104 59 -115 126 -202 173 -267 269 -377
246 -284 544 -500 896 -648 12 -6 32 -14 45 -19 171 -72 457 -138 677 -156 77
-6 313 -6 385 1 57 5 214 27 280 39 233 43 545 165 764 298 94 58 254 173 320
230 44 40 227 223 261 262 171 200 328 470 425 730 94 253 146 547 145 820 -1
131 -3 171 -16 280 -58 512 -293 1011 -648 1380 -76 79 -83 84 -54 40z"/>
</g>
</svg>
